<svg xmlns="http://www.w3.org/2000/svg" xmlns:xlink="http://www.w3.org/1999/xlink" width="2000" zoomAndPan="magnify" viewBox="0 0 1500 1499.999933" height="2000" preserveAspectRatio="xMidYMid meet" version="1.0"><defs><g/><clipPath id="d1a3d7d61d"><rect x="0" width="1095" y="0" height="1500"/></clipPath></defs><g transform="matrix(1, 0, 0, 1, 0, 0.000000000000112861)"><g clip-path="url(#d1a3d7d61d)"><g fill="#d9b627" fill-opacity="1"><g transform="translate(-31.412321, 1301.594212)"><g><path d="M 325.40625 0 L 393.765625 0 L 496.296875 -686.484375 L 502.234375 -732.546875 L 511.15625 -732.546875 L 511.15625 0 L 659.75 0 L 659.75 -1092.140625 L 463.609375 -1092.140625 L 368.5 -592.875 L 361.078125 -534.921875 L 358.109375 -534.921875 L 350.671875 -592.875 L 255.578125 -1092.140625 L 59.4375 -1092.140625 L 59.4375 0 L 208.03125 0 L 208.03125 -732.546875 L 216.9375 -732.546875 L 222.890625 -686.484375 Z M 325.40625 0 "/></g></g></g><g fill="#d9b627" fill-opacity="1"><g transform="translate(582.266475, 1301.594212)"><g><path d="M 346.21875 0 L 506.6875 0 L 404.171875 -528.984375 C 434.878906 -549.785156 457.414062 -582.722656 471.78125 -627.796875 C 486.144531 -672.867188 493.328125 -722.644531 493.328125 -777.125 C 493.328125 -880.144531 471.78125 -958.398438 428.6875 -1011.890625 C 385.59375 -1065.390625 316.003906 -1092.140625 219.921875 -1092.140625 L 59.4375 -1092.140625 L 59.4375 0 L 219.921875 0 L 219.921875 -460.625 L 263 -460.625 Z M 219.921875 -609.21875 L 219.921875 -933.15625 C 230.816406 -933.15625 243.195312 -932.160156 257.0625 -930.171875 C 270.925781 -928.191406 283.804688 -921.753906 295.703125 -910.859375 C 307.585938 -900.953125 317.738281 -884.851562 326.15625 -862.5625 C 334.570312 -840.28125 338.78125 -809.820312 338.78125 -771.1875 C 338.78125 -732.550781 334.570312 -702.582031 326.15625 -681.28125 C 317.738281 -659.988281 307.585938 -643.894531 295.703125 -633 C 283.804688 -623.09375 270.925781 -616.648438 257.0625 -613.671875 C 243.195312 -610.703125 230.816406 -609.21875 219.921875 -609.21875 Z M 219.921875 -609.21875 "/></g></g></g></g></g><g fill="#e04a54" fill-opacity="1"><g transform="translate(1138.252897, 1168.056215)"><g><path d="M 341.140625 19.390625 L 341.140625 136.9375 L -26.046875 136.9375 L -26.046875 19.390625 Z M 341.140625 19.390625 "/></g></g></g></svg>